HIERARCHY
ROOT Hips
{
	OFFSET -3.958830 18.904000 13.208200
	CHANNELS 6 Xposition Yposition Zposition Zrotation Yrotation Xrotation 
	JOINT LHipJoint
	{
		OFFSET 0.000000 0.000000 0.000000
		CHANNELS 3 Zrotation Yrotation Xrotation
		JOINT LeftUpLeg
		{
			OFFSET 1.800000 -1.400000 0.085000
			CHANNELS 3 Zrotation Yrotation Xrotation
			JOINT LeftLeg
			{
				OFFSET 2.215000 -6.000000 0.000000
				CHANNELS 3 Zrotation Yrotation Xrotation
				JOINT LeftFoot
				{
					OFFSET 2.500000 -6.900000 0.000000
					CHANNELS 3 Zrotation Yrotation Xrotation
					JOINT LeftToeBase
					{
						OFFSET 0.200000 -0.500000 1.950000
						CHANNELS 3 Zrotation Yrotation Xrotation
						End Site
						{
							OFFSET 0.000000 0.000000 0.000000
						}
					}
				}
			}
		}
	}
	JOINT RHipJoint
	{
		OFFSET 0.000000 0.000000 0.000000
		CHANNELS 3 Zrotation Yrotation Xrotation
		JOINT RightUpLeg
		{
			OFFSET -1.800000 -1.400000 0.085000
			CHANNELS 3 Zrotation Yrotation Xrotation
			JOINT RightLeg
			{
				OFFSET -2.215000 -6.000000 0.000000
				CHANNELS 3 Zrotation Yrotation Xrotation
				JOINT RightFoot
				{
					OFFSET -2.500000 -6.900000 0.000000
					CHANNELS 3 Zrotation Yrotation Xrotation
					JOINT RightToeBase
					{
						OFFSET -0.200000 -0.500000 1.950000
						CHANNELS 3 Zrotation Yrotation Xrotation
						End Site
						{
							OFFSET 0.000000 0.000000 0.000000
						}
					}
				}
			}
		}
	}
	JOINT LowerBack
	{
		OFFSET 0.000000 0.000000 0.000000
		CHANNELS 3 Zrotation Yrotation Xrotation
		JOINT Spine
		{
			OFFSET -0.087000 1.940000 -0.288900
			CHANNELS 3 Zrotation Yrotation Xrotation
			JOINT Spine1
			{
				OFFSET 0.000000 1.950000 0.060000
				CHANNELS 3 Zrotation Yrotation Xrotation
				JOINT Neck
				{
					OFFSET 0.000000 0.000000 0.000000
					CHANNELS 3 Zrotation Yrotation Xrotation
					JOINT Neck1
					{
						OFFSET 0.000000 1.600000 0.340000
						CHANNELS 3 Zrotation Yrotation Xrotation
						JOINT Head
						{
							OFFSET 0.000000 1.667000 -0.240000
							CHANNELS 3 Zrotation Yrotation Xrotation
							End Site
							{
								OFFSET 0.000000 0.000000 0.000000
							}
						}
					}
				}
				JOINT LeftShoulder
				{
					OFFSET 0.000000 0.000000 0.000000
					CHANNELS 3 Zrotation Yrotation Xrotation
					JOINT LeftArm
					{
						OFFSET 2.700000 1.550000 -0.730000
						CHANNELS 3 Zrotation Yrotation Xrotation
						JOINT LeftForeArm
						{
							OFFSET 5.450000 0.000000 0.000000
							CHANNELS 3 Zrotation Yrotation Xrotation
							JOINT LeftHand
							{
								OFFSET 3.450000 0.000000 0.000000
								CHANNELS 3 Zrotation Yrotation Xrotation
								JOINT LeftHandIndex1
								{
									OFFSET 0.750000 0.000000 0.000000
									CHANNELS 3 Zrotation Yrotation Xrotation
									End Site
									{
										OFFSET 0.000000 0.000000 0.000000
									}
								}
							}
						}
					}
				}
				JOINT RightShoulder
				{
					OFFSET 0.000000 0.000000 0.000000
					CHANNELS 3 Zrotation Yrotation Xrotation
					JOINT RightArm
					{
						OFFSET -2.700000 1.550000 -0.730000
						CHANNELS 3 Zrotation Yrotation Xrotation
						JOINT RightForeArm
						{
							OFFSET -5.450000 0.000000 0.000000
							CHANNELS 3 Zrotation Yrotation Xrotation
							JOINT RightHand
							{
								OFFSET -3.450000 0.000000 0.000000
								CHANNELS 3 Zrotation Yrotation Xrotation
								JOINT RightHandIndex1
								{
									OFFSET -0.750000 0.000000 0.000000
									CHANNELS 3 Zrotation Yrotation Xrotation
									End Site
									{
										OFFSET 0.000000 0.000000 0.000000
									}
								}
							}
						}
					}
				}
			}
		}
	}
}
MOTION
Frames: 8
Frame Time: 0.016667
0.730230 16.131320 -2.818410 -1.571518 -12.706587 -2.434523 -15.251077 11.237750 4.601156 13.730475 -10.841705 -25.306985 -25.824613 22.399293 48.843610 1.134235 12.615463 0.620218 0.340100 -0.059670 -0.007740 18.623282 -8.119945 4.311251 -0.465808 8.302985 -54.072887 -3.178744 -5.999659 39.234897 -0.531389 -4.763867 2.981714 -0.068150 0.572570 0.259650 -4.085678 -2.706471 -8.931947 17.308787 -17.055976 42.728460 -10.549497 -8.278964 -1.726594 3.620726 -10.773776 -11.444617 -22.358880 11.415941 24.546439 -6.962520 5.567680 -18.959190 -25.920114 -12.993800 3.116366 -21.809975 -2.851273 -7.910322 -77.196197 -72.062711 49.218221 -3.649845 3.283679 0.867860 0.209360 -0.103810 0.411610 19.237209 16.607329 9.666847 30.262970 -10.734658 -15.593359 28.528586 58.858612 11.069843 1.489379 -1.595827 -0.358840 0.484310 0.112790 -0.198640 
0.735560 16.099330 -2.767650 -1.726286 -12.316703 -4.523910 -15.265552 11.321169 4.454550 13.940358 -10.629463 -23.326152 -25.186238 23.034370 50.340949 1.160104 12.877136 0.518174 0.370320 -0.052430 0.056530 18.619637 -8.009102 4.411637 -1.572577 8.687935 -54.740751 -4.924646 -7.074930 49.420720 -0.906352 -6.606668 2.346821 -0.053960 0.508740 0.233850 -4.056156 -2.996949 -9.026567 18.192081 -17.373733 43.164778 -10.260962 -8.495344 -2.739829 3.806009 -10.756191 -11.736053 -24.186002 12.570587 28.721132 -7.638480 5.758100 -18.216870 -27.266861 -15.091731 3.033495 -24.621808 -4.154687 -9.957557 -46.163692 -61.783697 21.859426 -3.409016 3.259348 0.930690 0.161120 -0.068780 0.386780 20.076341 18.486182 9.814549 32.724209 -6.839942 -15.444248 30.760316 56.344378 11.206238 1.542317 -1.507802 -0.377550 0.496150 0.103590 -0.239300 
0.741200 16.071890 -2.704410 -1.711523 -12.273077 -6.326946 -15.257467 11.301050 4.266002 14.019233 -10.035814 -21.346804 -24.868666 23.911165 51.350144 1.218242 13.093112 0.430150 0.401310 -0.039680 0.148170 18.653613 -7.863679 4.604718 -3.126558 9.634450 -55.638449 -6.598312 -8.242870 60.752620 -1.379192 -8.688068 1.680494 -0.046360 0.424870 0.195710 -4.130273 -3.074217 -9.141065 19.820154 -17.648750 42.020607 -10.895758 -8.666311 -3.303827 3.952490 -10.373757 -12.342940 -25.686563 14.072018 33.930517 -8.614930 6.411790 -16.389050 -28.896697 -17.082746 3.434783 -25.267454 -4.859362 -9.414666 -30.952685 -48.787000 9.743459 -3.349253 3.082535 0.961810 0.114280 -0.039240 0.340430 21.213964 20.292410 9.826624 35.309578 -2.993919 -14.907106 33.122425 53.461737 11.150082 1.624103 -1.433535 -0.377310 0.489850 0.084470 -0.285000 
0.725460 16.047450 -2.651210 -1.673047 -12.598346 -8.336841 -15.249418 11.336002 4.069030 14.520136 -8.918965 -19.229015 -24.264681 24.847511 52.245874 1.281167 13.296237 0.358411 0.433910 0.000390 0.181020 18.673937 -7.763536 4.764374 -4.327786 11.128015 -55.066003 -8.142426 -9.108511 71.239978 -1.882364 -10.557537 1.148569 -0.028880 0.385570 0.197270 -4.181630 -3.107005 -9.220549 20.900542 -17.321248 41.101944 -11.202160 -8.620421 -3.356131 3.904034 -9.832109 -13.036140 -26.398637 15.195175 38.535192 -8.885600 6.440600 -15.219850 -30.297163 -18.700236 4.175748 -24.361644 -4.446405 -7.976978 -25.580510 -38.716704 5.609264 -3.316492 2.970244 0.986350 0.091530 0.004070 0.340320 22.603635 21.783007 9.719149 37.804761 0.256834 -14.639861 35.963958 53.783104 12.123823 1.665062 -1.417256 -0.362020 0.492190 0.065110 -0.288330 
0.697350 16.015900 -2.577660 -1.515475 -12.864290 -10.053010 -15.241094 11.422526 3.879123 15.012706 -7.531530 -17.144014 -23.387591 25.891337 53.253768 1.369814 13.497446 0.283516 0.451800 0.017320 0.203090 18.683493 -7.714170 4.840725 -6.000358 12.522858 -53.320359 -7.976094 -11.133459 80.244555 -2.327677 -12.154478 0.735124 -0.030340 0.343750 0.181840 -4.215992 -3.149415 -9.215858 22.207789 -16.821246 39.132881 -11.157053 -8.684973 -3.033792 3.731732 -9.775642 -14.124358 -28.441082 17.354194 42.145699 -8.371710 6.575020 -13.534990 -30.691740 -19.605486 5.402702 -24.339878 -2.091093 -7.020051 -24.681079 -33.606851 4.264451 -3.281602 2.925371 0.990390 0.058920 0.021020 0.320220 23.436982 22.968300 9.676494 40.261114 3.231414 -14.061723 39.161280 55.421119 13.896912 1.719089 -1.417219 -0.337800 0.480190 0.061610 -0.291750 
0.672130 15.994020 -2.482910 -1.285497 -12.700309 -11.638222 -15.211038 11.610753 3.685508 15.005496 -6.134136 -14.845782 -22.049896 26.332354 53.856540 1.401095 13.542079 0.241043 0.462220 0.012320 0.243860 18.684188 -7.846606 4.765344 -7.787432 13.197262 -50.162021 -7.264724 -13.594273 86.924648 -2.664501 -13.363159 0.422983 -0.038450 0.284130 0.184100 -4.248154 -3.140949 -9.108626 23.791233 -15.903966 36.403037 -11.156957 -8.618071 -1.791088 3.666790 -9.503965 -14.639774 -29.147378 18.999268 45.256858 -9.350640 7.415490 -11.744640 -30.768291 -19.719176 6.209587 -23.665114 -0.201278 -6.326977 -25.603060 -31.648859 4.107109 -3.273404 2.945213 0.986140 0.041360 0.027050 0.276260 23.657507 23.116110 9.607044 42.587675 5.697686 -13.160258 44.008361 59.148711 17.429041 1.777428 -1.459998 -0.312490 0.427070 0.065610 -0.318250 
0.630790 15.990430 -2.379840 -0.723282 -12.369942 -13.803679 -15.154198 11.917683 3.551422 14.822055 -4.777781 -11.949257 -20.602570 26.569907 54.530156 1.416035 13.600783 0.222954 0.491010 0.025390 0.279210 18.668848 -8.258886 4.429099 -8.378837 13.226829 -44.179939 -7.937247 -14.106606 91.067590 -2.894696 -13.934934 0.302125 -0.036430 0.260120 0.211810 -4.271991 -3.024039 -8.891844 24.659633 -14.514113 33.839369 -11.036044 -8.438116 0.547459 3.631580 -8.976776 -15.348651 -29.364834 20.749682 49.542571 -10.061180 8.046260 -11.512520 -29.875061 -20.200879 7.291024 -22.682954 1.929663 -6.225591 -27.255721 -32.840889 4.643869 -3.260275 2.937179 1.034730 0.026800 0.072470 0.278720 22.900136 23.541113 9.667936 45.032114 8.822124 -11.850617 49.461587 63.028878 21.707874 1.822065 -1.443783 -0.304130 0.432620 0.063300 -0.331800 
0.568190 15.985090 -2.272970 0.310681 -11.306293 -15.886252 -15.087879 12.306926 3.500147 14.193291 -3.815543 -9.272450 -19.087590 26.249412 54.868341 1.358416 13.549468 0.240937 0.481870 0.006250 0.288720 18.632595 -8.880516 3.873485 -8.730062 12.112972 -36.485319 -8.622228 -13.383385 91.678822 -2.908806 -13.879498 0.338033 -0.025810 0.266690 0.174880 -4.257516 -2.898664 -8.612614 23.799806 -12.462844 30.881523 -9.849411 -8.106202 3.511331 3.186694 -8.569146 -15.741407 -28.994773 21.558560 53.217442 -9.628670 8.147650 -10.964040 -28.072854 -20.218084 8.176719 -21.394745 3.674506 -6.300289 -29.840972 -36.833204 6.191981 -3.289634 2.896712 1.075890 0.024600 0.060990 0.261900 22.133216 23.577781 9.689463 46.224602 11.957122 -9.959754 53.967519 67.659204 26.450434 1.858677 -1.377090 -0.353190 0.482140 0.086050 -0.363110 
